<svg width="20" height="20" viewBox="0 0 20 20" fill="none" xmlns="http://www.w3.org/2000/svg">
<path fill-rule="evenodd" clip-rule="evenodd" d="M9.99994 0C4.47911 0 -6.10352e-05 4.47917 -6.10352e-05 10C-6.10352e-05 15.5208 4.47911 20 9.99994 20C15.5099 20 19.9999 15.5208 19.9999 10C19.9999 4.47917 15.5099 0 9.99994 0ZM16.6049 4.60917C17.8362 6.10861 18.5175 7.98408 18.5358 9.92417C18.2541 9.87 15.4341 9.295 12.5924 9.65333C12.5266 9.51167 12.4724 9.36 12.4074 9.20833C12.2307 8.79117 12.0429 8.3788 11.8441 7.97167C14.9891 6.69167 16.4208 4.84833 16.6049 4.60917ZM9.99994 1.47583C12.1691 1.47583 14.1541 2.28833 15.6616 3.6225C15.5099 3.83917 14.2191 5.56417 11.1824 6.7025C9.78244 4.1325 8.23244 2.0275 7.99327 1.7025C8.65104 1.54891 9.32448 1.47256 9.99994 1.475V1.47583ZM6.36661 2.2775C6.59411 2.58167 8.11244 4.69667 9.53327 7.2125C5.5416 8.27583 2.01661 8.25417 1.63744 8.25417C2.19077 5.6075 3.98077 3.40583 6.36661 2.2775ZM1.45327 10.0108V9.75083C1.82244 9.76167 5.96494 9.81583 10.2283 8.53583C10.4774 9.01333 10.7049 9.50083 10.9216 9.98917C10.8133 10.0217 10.6941 10.0542 10.5858 10.0867C6.18244 11.5075 3.83911 15.39 3.64411 15.7158C2.23361 14.1504 1.45311 12.118 1.45327 10.0108ZM9.99994 18.5467C8.02577 18.5467 6.20411 17.8742 4.76161 16.7467C4.91327 16.4317 6.64827 13.0908 11.4641 11.41C11.4858 11.3992 11.4974 11.3992 11.5183 11.3883C12.7224 14.5008 13.2099 17.115 13.3408 17.8633C12.3099 18.3083 11.1824 18.5467 9.99994 18.5467ZM14.7616 17.0825C14.6749 16.5617 14.2191 14.0675 13.1016 10.9975C15.7808 10.575 18.1233 11.2692 18.4166 11.3667C18.0474 13.7417 16.6808 15.7917 14.7616 17.0825Z" fill="#EBEBEB"/>
</svg>
