<svg width="38" height="38" viewBox="0 0 38 38" fill="none" xmlns="http://www.w3.org/2000/svg">
<circle cx="18.9999" cy="19" r="19" fill="#48485B"/>
<path d="M18.4976 16.332C16.7531 16.332 15.3295 17.7556 15.3295 19.5C15.3295 21.2444 16.7531 22.668 18.4976 22.668C20.242 22.668 21.6656 21.2444 21.6656 19.5C21.6656 17.7556 20.242 16.332 18.4976 16.332ZM27.9992 19.5C27.9992 18.1881 28.0111 16.8881 27.9374 15.5786C27.8638 14.0576 27.5168 12.7077 26.4045 11.5954C25.2899 10.4808 23.9424 10.1362 22.4213 10.0625C21.1095 9.98882 19.8094 10.0007 18.4999 10.0007C17.1881 10.0007 15.8881 9.98882 14.5785 10.0625C13.0575 10.1362 11.7076 10.4832 10.5953 11.5954C9.48072 12.71 9.13611 14.0576 9.06244 15.5786C8.98876 16.8905 9.00065 18.1905 9.00065 19.5C9.00065 20.8095 8.98876 22.1119 9.06244 23.4214C9.13611 24.9424 9.4831 26.2923 10.5953 27.4046C11.71 28.5192 13.0575 28.8638 14.5785 28.9375C15.8904 29.0112 17.1904 28.9993 18.4999 28.9993C19.8118 28.9993 21.1118 29.0112 22.4213 28.9375C23.9424 28.8638 25.2923 28.5168 26.4045 27.4046C27.5192 26.29 27.8638 24.9424 27.9374 23.4214C28.0135 22.1119 27.9992 20.8119 27.9992 19.5ZM18.4976 24.3744C15.8001 24.3744 13.6231 22.1974 13.6231 19.5C13.6231 16.8026 15.8001 14.6256 18.4976 14.6256C21.195 14.6256 23.372 16.8026 23.372 19.5C23.372 22.1974 21.195 24.3744 18.4976 24.3744ZM23.5716 15.5643C22.9418 15.5643 22.4332 15.0557 22.4332 14.4259C22.4332 13.7961 22.9418 13.2876 23.5716 13.2876C24.2014 13.2876 24.71 13.7961 24.71 14.4259C24.7102 14.5755 24.6809 14.7236 24.6237 14.8618C24.5666 15 24.4827 15.1256 24.377 15.2313C24.2713 15.3371 24.1457 15.4209 24.0075 15.4781C23.8693 15.5352 23.7212 15.5645 23.5716 15.5643Z" fill="#FFBA1A"/>
</svg>
