<svg width="20" height="20" viewBox="0 0 20 20" fill="none" xmlns="http://www.w3.org/2000/svg">
<path d="M4.5401 19.1175V6.21896H0.252883V19.1175H4.5401ZM2.39704 4.45682C3.89207 4.45682 4.82265 3.46637 4.82265 2.22862C4.7948 0.962967 3.89213 0 2.42541 0C0.95893 0 -6.10352e-05 0.962987 -6.10352e-05 2.22862C-6.10352e-05 3.46642 0.930292 4.45682 2.36906 4.45682H2.39691H2.39704ZM6.91306 19.1175H11.2003V11.9143C11.2003 11.5288 11.2281 11.1437 11.3413 10.8681C11.6513 10.0979 12.3567 9.30019 13.541 9.30019C15.0924 9.30019 15.713 10.483 15.713 12.217V19.1174H19.9999V11.7215C19.9999 7.75958 17.8849 5.91614 15.0641 5.91614C12.7513 5.91614 11.7359 7.2089 11.1717 8.0894H11.2004V6.21869H6.91315C6.96941 7.42902 6.91315 19.1173 6.91315 19.1173L6.91306 19.1175Z" fill="#D6D6D6"/>
</svg>
