<svg width="38" height="38" viewBox="0 0 38 38" fill="none" xmlns="http://www.w3.org/2000/svg">
<circle cx="18.9999" cy="19" r="19" fill="#48485B"/>
<path d="M11 16.1742C11 15.3095 11.1512 14.4926 11.449 13.7302C11.7336 12.9897 12.1564 12.31 12.6949 11.7274C13.2323 11.1525 13.8473 10.6554 14.5221 10.2504C15.2144 9.83152 15.9639 9.51553 16.7472 9.31231C17.5398 9.10417 18.3561 8.9992 19.1756 9C20.4415 9 21.6196 9.26786 22.7121 9.80134C23.7904 10.3251 24.7082 11.1289 25.3696 12.1287C26.052 13.1456 26.3909 14.2959 26.3909 15.5785C26.3909 16.3476 26.3154 17.1 26.1609 17.8358C26.0092 18.5711 25.7681 19.2852 25.4429 19.9619C25.133 20.6171 24.7277 21.2227 24.2404 21.7591C23.7505 22.287 23.1573 22.7084 22.4976 22.9972C21.7815 23.3111 21.0067 23.4691 20.2248 23.4607C19.6813 23.4607 19.1389 23.3329 18.6032 23.0761C18.0675 22.8205 17.683 22.4693 17.4518 22.0192C17.3707 22.3315 17.2595 22.7827 17.1117 23.3729C16.9694 23.9619 16.8739 24.342 16.8316 24.5143C16.7872 24.6855 16.7049 24.9711 16.5849 25.3668C16.5035 25.6595 16.3991 25.9452 16.2726 26.2215L15.8903 26.9705C15.7249 27.292 15.5401 27.603 15.3368 27.9019C15.1356 28.1931 14.8866 28.541 14.5899 28.9411L14.4243 29L14.3143 28.88C14.1953 27.6207 14.1342 26.8672 14.1342 26.6182C14.1342 25.8814 14.222 25.0545 14.3954 24.1364C14.5654 23.2195 14.8344 22.067 15.1956 20.681C15.5568 19.2962 15.7636 18.4815 15.8191 18.2403C15.5646 17.7213 15.4357 17.0433 15.4357 16.2098C15.4357 15.544 15.6435 14.9205 16.0603 14.3337C16.4782 13.7491 17.0061 13.4568 17.6463 13.4568C18.1364 13.4568 18.5165 13.6191 18.7888 13.9447C19.0622 14.2692 19.1956 14.6782 19.1956 15.1773C19.1956 15.7063 19.02 16.4721 18.6666 17.4735C18.3132 18.476 18.1375 19.224 18.1375 19.7208C18.1375 20.2242 18.3176 20.6455 18.6777 20.9756C19.0331 21.3058 19.503 21.4848 19.9881 21.4746C20.4282 21.4746 20.8361 21.3745 21.2151 21.1734C21.5881 20.9781 21.9111 20.6993 22.1587 20.3587C22.6979 19.6188 23.0824 18.7777 23.289 17.8858C23.3957 17.4168 23.4779 16.9711 23.529 16.5521C23.5835 16.1309 23.6068 15.733 23.6068 15.3551C23.6068 13.9692 23.1667 12.8889 22.292 12.1153C21.4129 11.3418 20.2681 10.9572 18.86 10.9572C17.2584 10.9572 15.9192 11.4751 14.8466 12.5143C13.773 13.5502 13.2329 14.8672 13.2329 16.4643C13.2329 16.8166 13.2862 17.1567 13.3873 17.4857C13.4863 17.8136 13.5941 18.0747 13.7108 18.2681C13.8263 18.4582 13.9353 18.6438 14.0342 18.815C14.1342 18.9861 14.1864 19.1084 14.1864 19.1817C14.1864 19.4062 14.1275 19.6985 14.0086 20.0597C13.8853 20.421 13.7397 20.601 13.5641 20.601C13.5474 20.601 13.4785 20.5888 13.3584 20.5632C12.9427 20.4391 12.5673 20.2071 12.2704 19.8908C11.9552 19.563 11.7065 19.1773 11.5379 18.7549C11.3699 18.3341 11.239 17.8994 11.1467 17.4557C11.0471 17.0359 10.9978 16.6057 11 16.1742Z" fill="#FFBA1A"/>
</svg>
