<svg width="22" height="22" viewBox="0 0 22 22" fill="none" xmlns="http://www.w3.org/2000/svg">
<path d="M10.9999 22C13.9173 22 16.7152 20.8411 18.7781 18.7782C20.841 16.7153 21.9999 13.9174 21.9999 11C21.9999 8.08262 20.841 5.28473 18.7781 3.22183C16.7152 1.15893 13.9173 0 10.9999 0C8.08256 0 5.28466 1.15893 3.22176 3.22183C1.15886 5.28473 -6.10352e-05 8.08262 -6.10352e-05 11C-6.10352e-05 13.9174 1.15886 16.7153 3.22176 18.7782C5.28466 20.8411 8.08256 22 10.9999 22ZM9.62494 8.9375C9.62494 9.62638 9.39944 9.482 9.05431 9.26062C8.82744 9.11487 8.54969 8.9375 8.24994 8.9375C7.95019 8.9375 7.67244 9.11625 7.44556 9.26062C7.10044 9.482 6.87494 9.625 6.87494 8.9375C6.87494 7.799 7.49094 6.875 8.24994 6.875C9.00894 6.875 9.62494 7.799 9.62494 8.9375ZM16.9551 13.0625C17.0757 13.2715 17.1393 13.5086 17.1393 13.75C17.1393 13.9914 17.0757 14.2285 16.9551 14.4375C16.3518 15.483 15.4837 16.3511 14.4383 16.9546C13.3929 17.558 12.207 17.8755 10.9999 17.875C9.7931 17.8752 8.60747 17.5577 7.56233 16.9543C6.51718 16.3508 5.64937 15.4828 5.04619 14.4375C4.92557 14.2286 4.86204 13.9916 4.86197 13.7504C4.86191 13.5091 4.92532 13.2721 5.04584 13.0631C5.16635 12.8541 5.33973 12.6805 5.54856 12.5597C5.75739 12.439 5.99432 12.3752 6.23556 12.375H15.7643C16.0057 12.375 16.2428 12.4385 16.4518 12.5592C16.6608 12.6799 16.8344 12.8535 16.9551 13.0625ZM14.5543 9.26062C14.3274 9.11487 14.0497 8.9375 13.7499 8.9375C13.4502 8.9375 13.1724 9.11625 12.9456 9.26062C12.6004 9.482 12.3749 9.625 12.3749 8.9375C12.3749 7.799 12.9909 6.875 13.7499 6.875C14.5089 6.875 15.1249 7.799 15.1249 8.9375C15.1249 9.62638 14.8994 9.482 14.5543 9.26062Z" fill="#FFBA1A"/>
</svg>
