<svg width="38" height="38" viewBox="0 0 38 38" fill="none" xmlns="http://www.w3.org/2000/svg">
<circle cx="18.9999" cy="19" r="19" fill="#48485B"/>
<path d="M28.9999 12.9301C28.2645 13.2473 27.4641 13.4757 26.6396 13.5646C27.4956 13.0561 28.1366 12.2527 28.4423 11.3053C27.6391 11.7831 26.7592 12.1181 25.8417 12.2955C25.4582 11.8855 24.9943 11.5589 24.4791 11.336C23.9638 11.1132 23.4082 10.9988 22.8468 11C20.5755 11 18.7488 12.8411 18.7488 15.1005C18.7488 15.4177 18.7872 15.735 18.8497 16.0403C15.4487 15.8624 12.4154 14.2376 10.3988 11.7499C10.0314 12.3775 9.83881 13.0921 9.84118 13.8194C9.84118 15.2423 10.5647 16.4969 11.6679 17.2348C11.0177 17.2092 10.3828 17.0305 9.81474 16.7133V16.7637C9.81474 18.7563 11.2232 20.4075 13.1004 20.7873C12.7479 20.8788 12.3854 20.9257 12.0212 20.9267C11.7544 20.9267 11.502 20.9003 11.2473 20.8642C11.7664 22.489 13.2783 23.6692 15.0785 23.7076C13.6701 24.8109 11.9058 25.4598 9.9902 25.4598C9.6465 25.4598 9.32923 25.4478 8.99994 25.4093C10.817 26.5751 12.973 27.2481 15.2949 27.2481C22.8324 27.2481 26.9569 21.0036 26.9569 15.5836C26.9569 15.4057 26.9569 15.2279 26.9449 15.05C27.7429 14.4659 28.4423 13.7425 28.9999 12.9301Z" fill="#FFBA1A"/>
</svg>
